<mxfile host="app.diagrams.net" modified="2021-10-28T06:17:22.268Z" agent="5.0 (Windows NT 10.0; Win64; x64) AppleWebKit/537.36 (KHTML, like Gecko) Chrome/95.0.4638.54 Safari/537.36" etag="SSbRljdx6s__w4_twCP2" version="15.6.1" type="github">
  <diagram id="jaizZeg2m4h8z-fETQ2Q" name="第 1 页">
    <mxGraphModel dx="1038" dy="547" grid="1" gridSize="10" guides="1" tooltips="1" connect="1" arrows="1" fold="1" page="1" pageScale="1" pageWidth="827" pageHeight="1169" math="0" shadow="0">
      <root>
        <mxCell id="0" />
        <mxCell id="1" parent="0" />
        <mxCell id="z8crGelkCnJjQO6flF5Z-1" value="" style="rounded=0;whiteSpace=wrap;html=1;fillColor=#ffcd28;strokeColor=#d79b00;gradientColor=#ffa500;" parent="1" vertex="1">
          <mxGeometry x="40" y="170" width="150" height="60" as="geometry" />
        </mxCell>
        <mxCell id="z8crGelkCnJjQO6flF5Z-2" value="(a,1)" style="rounded=0;whiteSpace=wrap;html=1;fillColor=#0050ef;fontColor=#ffffff;strokeColor=#001DBC;" parent="1" vertex="1">
          <mxGeometry x="60" y="187.5" width="30" height="25" as="geometry" />
        </mxCell>
        <mxCell id="z8crGelkCnJjQO6flF5Z-5" value="(a,2)" style="rounded=0;whiteSpace=wrap;html=1;fillColor=#1ba1e2;fontColor=#ffffff;strokeColor=#006EAF;" parent="1" vertex="1">
          <mxGeometry x="100" y="187.5" width="30" height="25" as="geometry" />
        </mxCell>
        <mxCell id="z8crGelkCnJjQO6flF5Z-8" style="edgeStyle=orthogonalEdgeStyle;rounded=0;orthogonalLoop=1;jettySize=auto;html=1;exitX=1;exitY=0.5;exitDx=0;exitDy=0;entryX=0;entryY=0.5;entryDx=0;entryDy=0;strokeWidth=2;" parent="1" source="z8crGelkCnJjQO6flF5Z-6" target="z8crGelkCnJjQO6flF5Z-7" edge="1">
          <mxGeometry relative="1" as="geometry" />
        </mxCell>
        <mxCell id="z8crGelkCnJjQO6flF5Z-6" value="(b,3)" style="rounded=0;whiteSpace=wrap;html=1;fillColor=#6a00ff;fontColor=#ffffff;strokeColor=#3700CC;" parent="1" vertex="1">
          <mxGeometry x="140" y="187.5" width="30" height="25" as="geometry" />
        </mxCell>
        <mxCell id="z8crGelkCnJjQO6flF5Z-7" value="" style="rounded=0;whiteSpace=wrap;html=1;fillColor=#ffcd28;gradientColor=#ffa500;strokeColor=#d79b00;" parent="1" vertex="1">
          <mxGeometry x="220" y="170" width="50" height="60" as="geometry" />
        </mxCell>
        <mxCell id="z8crGelkCnJjQO6flF5Z-10" value="(b,0)" style="rounded=0;whiteSpace=wrap;html=1;fillColor=#fff2cc;strokeColor=#d6b656;" parent="1" vertex="1">
          <mxGeometry x="230" y="200" width="30" height="25" as="geometry" />
        </mxCell>
        <mxCell id="z8crGelkCnJjQO6flF5Z-11" value="(a,0)" style="rounded=0;whiteSpace=wrap;html=1;fillColor=#fff2cc;strokeColor=#d6b656;" parent="1" vertex="1">
          <mxGeometry x="230" y="175" width="30" height="25" as="geometry" />
        </mxCell>
        <mxCell id="Is7DLDFzpAOOIFQMmCOW-4" value="" style="edgeStyle=none;rounded=0;orthogonalLoop=1;jettySize=auto;html=1;strokeWidth=2;" edge="1" parent="1" source="z8crGelkCnJjQO6flF5Z-12" target="Is7DLDFzpAOOIFQMmCOW-1">
          <mxGeometry relative="1" as="geometry" />
        </mxCell>
        <mxCell id="z8crGelkCnJjQO6flF5Z-12" value="" style="rounded=0;whiteSpace=wrap;html=1;fillColor=#ffcd28;gradientColor=#ffa500;strokeColor=#d79b00;" parent="1" vertex="1">
          <mxGeometry x="300" y="170" width="240" height="60" as="geometry" />
        </mxCell>
        <mxCell id="z8crGelkCnJjQO6flF5Z-13" value="(a,0)" style="rounded=0;whiteSpace=wrap;html=1;fillColor=#fff2cc;strokeColor=#d6b656;" parent="1" vertex="1">
          <mxGeometry x="310" y="175" width="30" height="25" as="geometry" />
        </mxCell>
        <mxCell id="z8crGelkCnJjQO6flF5Z-16" value="" style="edgeStyle=orthogonalEdgeStyle;rounded=0;orthogonalLoop=1;jettySize=auto;html=1;strokeWidth=2;" parent="1" source="z8crGelkCnJjQO6flF5Z-14" edge="1">
          <mxGeometry relative="1" as="geometry">
            <mxPoint x="400" y="188" as="targetPoint" />
          </mxGeometry>
        </mxCell>
        <mxCell id="z8crGelkCnJjQO6flF5Z-14" value="(a,1)" style="rounded=0;whiteSpace=wrap;html=1;fillColor=#0050ef;fontColor=#ffffff;strokeColor=#001DBC;" parent="1" vertex="1">
          <mxGeometry x="340" y="175" width="30" height="25" as="geometry" />
        </mxCell>
        <mxCell id="z8crGelkCnJjQO6flF5Z-17" value="(a,1)" style="rounded=0;whiteSpace=wrap;html=1;fillColor=#0050ef;fontColor=#ffffff;strokeColor=#001DBC;" parent="1" vertex="1">
          <mxGeometry x="399" y="175" width="30" height="25" as="geometry" />
        </mxCell>
        <mxCell id="z8crGelkCnJjQO6flF5Z-20" value="" style="edgeStyle=orthogonalEdgeStyle;rounded=0;orthogonalLoop=1;jettySize=auto;html=1;strokeWidth=2;" parent="1" source="z8crGelkCnJjQO6flF5Z-18" edge="1">
          <mxGeometry relative="1" as="geometry">
            <mxPoint x="490" y="188" as="targetPoint" />
          </mxGeometry>
        </mxCell>
        <mxCell id="z8crGelkCnJjQO6flF5Z-18" value="(a,2)" style="rounded=0;whiteSpace=wrap;html=1;fillColor=#1ba1e2;fontColor=#ffffff;strokeColor=#006EAF;" parent="1" vertex="1">
          <mxGeometry x="429" y="175" width="30" height="25" as="geometry" />
        </mxCell>
        <mxCell id="z8crGelkCnJjQO6flF5Z-21" value="(a,2)" style="rounded=0;whiteSpace=wrap;html=1;fillColor=#1ba1e2;fontColor=#ffffff;strokeColor=#006EAF;" parent="1" vertex="1">
          <mxGeometry x="490" y="175" width="30" height="25" as="geometry" />
        </mxCell>
        <mxCell id="z8crGelkCnJjQO6flF5Z-22" value="(b,0)" style="rounded=0;whiteSpace=wrap;html=1;fillColor=#fff2cc;strokeColor=#d6b656;" parent="1" vertex="1">
          <mxGeometry x="310" y="200" width="30" height="25" as="geometry" />
        </mxCell>
        <mxCell id="z8crGelkCnJjQO6flF5Z-26" value="" style="edgeStyle=orthogonalEdgeStyle;rounded=0;orthogonalLoop=1;jettySize=auto;html=1;strokeWidth=2;entryX=0;entryY=0.5;entryDx=0;entryDy=0;" parent="1" source="z8crGelkCnJjQO6flF5Z-24" target="z8crGelkCnJjQO6flF5Z-27" edge="1">
          <mxGeometry relative="1" as="geometry" />
        </mxCell>
        <mxCell id="z8crGelkCnJjQO6flF5Z-24" value="(b,3)" style="rounded=0;whiteSpace=wrap;html=1;fillColor=#6a00ff;fontColor=#ffffff;strokeColor=#3700CC;" parent="1" vertex="1">
          <mxGeometry x="340" y="200" width="30" height="25" as="geometry" />
        </mxCell>
        <mxCell id="z8crGelkCnJjQO6flF5Z-27" value="(b,3)" style="rounded=0;whiteSpace=wrap;html=1;fillColor=#6a00ff;fontColor=#ffffff;strokeColor=#3700CC;" parent="1" vertex="1">
          <mxGeometry x="490" y="200" width="30" height="25" as="geometry" />
        </mxCell>
        <mxCell id="z8crGelkCnJjQO6flF5Z-28" value="" style="rounded=0;whiteSpace=wrap;html=1;fillColor=#ffcd28;gradientColor=#ffa500;strokeColor=#d79b00;" parent="1" vertex="1">
          <mxGeometry x="40" y="250" width="150" height="60" as="geometry" />
        </mxCell>
        <mxCell id="z8crGelkCnJjQO6flF5Z-29" value="(b,4)" style="rounded=0;whiteSpace=wrap;html=1;fillColor=#0050ef;fontColor=#ffffff;strokeColor=#001DBC;" parent="1" vertex="1">
          <mxGeometry x="60" y="267.5" width="30" height="25" as="geometry" />
        </mxCell>
        <mxCell id="z8crGelkCnJjQO6flF5Z-30" value="(b,5)" style="rounded=0;whiteSpace=wrap;html=1;fillColor=#1ba1e2;fontColor=#ffffff;strokeColor=#006EAF;" parent="1" vertex="1">
          <mxGeometry x="100" y="267.5" width="30" height="25" as="geometry" />
        </mxCell>
        <mxCell id="z8crGelkCnJjQO6flF5Z-31" style="edgeStyle=orthogonalEdgeStyle;rounded=0;orthogonalLoop=1;jettySize=auto;html=1;exitX=1;exitY=0.5;exitDx=0;exitDy=0;entryX=0;entryY=0.5;entryDx=0;entryDy=0;strokeWidth=2;" parent="1" source="z8crGelkCnJjQO6flF5Z-32" target="z8crGelkCnJjQO6flF5Z-33" edge="1">
          <mxGeometry relative="1" as="geometry" />
        </mxCell>
        <mxCell id="z8crGelkCnJjQO6flF5Z-32" value="(a,6)" style="rounded=0;whiteSpace=wrap;html=1;fillColor=#6a00ff;fontColor=#ffffff;strokeColor=#3700CC;" parent="1" vertex="1">
          <mxGeometry x="140" y="267.5" width="30" height="25" as="geometry" />
        </mxCell>
        <mxCell id="z8crGelkCnJjQO6flF5Z-57" style="edgeStyle=none;rounded=0;orthogonalLoop=1;jettySize=auto;html=1;strokeWidth=2;" parent="1" source="z8crGelkCnJjQO6flF5Z-33" edge="1">
          <mxGeometry relative="1" as="geometry">
            <mxPoint x="235" y="300" as="targetPoint" />
          </mxGeometry>
        </mxCell>
        <mxCell id="z8crGelkCnJjQO6flF5Z-33" value="" style="rounded=0;whiteSpace=wrap;html=1;fillColor=#ffcd28;gradientColor=#ffa500;strokeColor=#d79b00;" parent="1" vertex="1">
          <mxGeometry x="220" y="250" width="50" height="60" as="geometry" />
        </mxCell>
        <mxCell id="z8crGelkCnJjQO6flF5Z-34" value="(b,0)" style="rounded=0;whiteSpace=wrap;html=1;fillColor=#fff2cc;strokeColor=#d6b656;" parent="1" vertex="1">
          <mxGeometry x="230" y="255" width="30" height="25" as="geometry" />
        </mxCell>
        <mxCell id="z8crGelkCnJjQO6flF5Z-35" value="(a,0)" style="rounded=0;whiteSpace=wrap;html=1;fillColor=#fff2cc;strokeColor=#d6b656;" parent="1" vertex="1">
          <mxGeometry x="230" y="280" width="30" height="25" as="geometry" />
        </mxCell>
        <mxCell id="Is7DLDFzpAOOIFQMmCOW-3" value="" style="edgeStyle=none;rounded=0;orthogonalLoop=1;jettySize=auto;html=1;strokeWidth=2;" edge="1" parent="1" source="z8crGelkCnJjQO6flF5Z-36" target="Is7DLDFzpAOOIFQMmCOW-2">
          <mxGeometry relative="1" as="geometry" />
        </mxCell>
        <mxCell id="z8crGelkCnJjQO6flF5Z-36" value="" style="rounded=0;whiteSpace=wrap;html=1;fillColor=#ffcd28;gradientColor=#ffa500;strokeColor=#d79b00;" parent="1" vertex="1">
          <mxGeometry x="300" y="250" width="240" height="60" as="geometry" />
        </mxCell>
        <mxCell id="z8crGelkCnJjQO6flF5Z-37" value="(a,0)" style="rounded=0;whiteSpace=wrap;html=1;fillColor=#fff2cc;strokeColor=#d6b656;" parent="1" vertex="1">
          <mxGeometry x="310" y="280" width="30" height="25" as="geometry" />
        </mxCell>
        <mxCell id="z8crGelkCnJjQO6flF5Z-38" value="" style="edgeStyle=orthogonalEdgeStyle;rounded=0;orthogonalLoop=1;jettySize=auto;html=1;strokeWidth=2;" parent="1" edge="1">
          <mxGeometry relative="1" as="geometry">
            <mxPoint x="370" y="267.5" as="sourcePoint" />
            <mxPoint x="400" y="268" as="targetPoint" />
          </mxGeometry>
        </mxCell>
        <mxCell id="z8crGelkCnJjQO6flF5Z-41" value="" style="edgeStyle=orthogonalEdgeStyle;rounded=0;orthogonalLoop=1;jettySize=auto;html=1;strokeWidth=2;" parent="1" edge="1">
          <mxGeometry relative="1" as="geometry">
            <mxPoint x="459" y="267.5" as="sourcePoint" />
            <mxPoint x="490" y="268" as="targetPoint" />
          </mxGeometry>
        </mxCell>
        <mxCell id="z8crGelkCnJjQO6flF5Z-44" value="(b,0)" style="rounded=0;whiteSpace=wrap;html=1;fillColor=#fff2cc;strokeColor=#d6b656;" parent="1" vertex="1">
          <mxGeometry x="310" y="255" width="30" height="25" as="geometry" />
        </mxCell>
        <mxCell id="z8crGelkCnJjQO6flF5Z-45" value="" style="edgeStyle=orthogonalEdgeStyle;rounded=0;orthogonalLoop=1;jettySize=auto;html=1;strokeWidth=2;entryX=0;entryY=0.5;entryDx=0;entryDy=0;" parent="1" edge="1">
          <mxGeometry relative="1" as="geometry">
            <mxPoint x="370" y="292.5" as="sourcePoint" />
            <mxPoint x="490" y="292.5" as="targetPoint" />
          </mxGeometry>
        </mxCell>
        <mxCell id="z8crGelkCnJjQO6flF5Z-48" value="(b,4)" style="rounded=0;whiteSpace=wrap;html=1;fillColor=#0050ef;fontColor=#ffffff;strokeColor=#001DBC;" parent="1" vertex="1">
          <mxGeometry x="340" y="255" width="30" height="25" as="geometry" />
        </mxCell>
        <mxCell id="z8crGelkCnJjQO6flF5Z-50" value="(b,4)" style="rounded=0;whiteSpace=wrap;html=1;fillColor=#0050ef;fontColor=#ffffff;strokeColor=#001DBC;" parent="1" vertex="1">
          <mxGeometry x="399" y="255" width="30" height="25" as="geometry" />
        </mxCell>
        <mxCell id="z8crGelkCnJjQO6flF5Z-51" value="(b,5)" style="rounded=0;whiteSpace=wrap;html=1;fillColor=#1ba1e2;fontColor=#ffffff;strokeColor=#006EAF;" parent="1" vertex="1">
          <mxGeometry x="429" y="255" width="30" height="25" as="geometry" />
        </mxCell>
        <mxCell id="z8crGelkCnJjQO6flF5Z-52" value="(b,5)" style="rounded=0;whiteSpace=wrap;html=1;fillColor=#1ba1e2;fontColor=#ffffff;strokeColor=#006EAF;" parent="1" vertex="1">
          <mxGeometry x="490" y="255" width="30" height="25" as="geometry" />
        </mxCell>
        <mxCell id="z8crGelkCnJjQO6flF5Z-53" value="(a,6)" style="rounded=0;whiteSpace=wrap;html=1;fillColor=#6a00ff;fontColor=#ffffff;strokeColor=#3700CC;" parent="1" vertex="1">
          <mxGeometry x="340" y="280" width="30" height="25" as="geometry" />
        </mxCell>
        <mxCell id="z8crGelkCnJjQO6flF5Z-54" value="(a,6)" style="rounded=0;whiteSpace=wrap;html=1;fillColor=#6a00ff;fontColor=#ffffff;strokeColor=#3700CC;" parent="1" vertex="1">
          <mxGeometry x="490" y="280" width="30" height="25" as="geometry" />
        </mxCell>
        <mxCell id="z8crGelkCnJjQO6flF5Z-55" style="rounded=0;orthogonalLoop=1;jettySize=auto;html=1;entryX=0;entryY=0.5;entryDx=0;entryDy=0;strokeWidth=2;exitX=1;exitY=0.5;exitDx=0;exitDy=0;" parent="1" source="z8crGelkCnJjQO6flF5Z-7" target="z8crGelkCnJjQO6flF5Z-12" edge="1">
          <mxGeometry relative="1" as="geometry">
            <mxPoint x="280" y="200" as="sourcePoint" />
            <mxPoint x="210" y="200" as="targetPoint" />
          </mxGeometry>
        </mxCell>
        <mxCell id="z8crGelkCnJjQO6flF5Z-58" style="rounded=0;orthogonalLoop=1;jettySize=auto;html=1;entryX=0;entryY=0.5;entryDx=0;entryDy=0;strokeWidth=2;" parent="1" source="z8crGelkCnJjQO6flF5Z-33" target="z8crGelkCnJjQO6flF5Z-36" edge="1">
          <mxGeometry relative="1" as="geometry">
            <mxPoint x="270" y="210" as="sourcePoint" />
            <mxPoint x="310" y="210" as="targetPoint" />
          </mxGeometry>
        </mxCell>
        <mxCell id="Is7DLDFzpAOOIFQMmCOW-1" value="" style="rounded=0;whiteSpace=wrap;html=1;fillColor=#ffcd28;gradientColor=#ffa500;strokeColor=#d79b00;" vertex="1" parent="1">
          <mxGeometry x="570" y="170" width="190" height="60" as="geometry" />
        </mxCell>
        <mxCell id="Is7DLDFzpAOOIFQMmCOW-2" value="" style="rounded=0;whiteSpace=wrap;html=1;fillColor=#ffcd28;gradientColor=#ffa500;strokeColor=#d79b00;" vertex="1" parent="1">
          <mxGeometry x="570" y="250" width="190" height="60" as="geometry" />
        </mxCell>
        <mxCell id="Is7DLDFzpAOOIFQMmCOW-5" value="(a,2)" style="rounded=0;whiteSpace=wrap;html=1;fillColor=#1ba1e2;fontColor=#ffffff;strokeColor=#006EAF;" vertex="1" parent="1">
          <mxGeometry x="590" y="187.5" width="30" height="25" as="geometry" />
        </mxCell>
        <mxCell id="Is7DLDFzpAOOIFQMmCOW-9" value="" style="edgeStyle=none;rounded=0;orthogonalLoop=1;jettySize=auto;html=1;strokeWidth=2;" edge="1" parent="1" source="Is7DLDFzpAOOIFQMmCOW-7">
          <mxGeometry relative="1" as="geometry">
            <mxPoint x="705" y="200" as="targetPoint" />
          </mxGeometry>
        </mxCell>
        <mxCell id="Is7DLDFzpAOOIFQMmCOW-7" value="(a,6)" style="rounded=0;whiteSpace=wrap;html=1;fillColor=#6a00ff;fontColor=#ffffff;strokeColor=#3700CC;" vertex="1" parent="1">
          <mxGeometry x="620" y="187.5" width="30" height="25" as="geometry" />
        </mxCell>
        <mxCell id="Is7DLDFzpAOOIFQMmCOW-10" value="(b,3)" style="rounded=0;whiteSpace=wrap;html=1;fillColor=#6a00ff;fontColor=#ffffff;strokeColor=#3700CC;" vertex="1" parent="1">
          <mxGeometry x="590" y="267.5" width="30" height="25" as="geometry" />
        </mxCell>
        <mxCell id="Is7DLDFzpAOOIFQMmCOW-13" value="" style="edgeStyle=none;rounded=0;orthogonalLoop=1;jettySize=auto;html=1;strokeWidth=2;" edge="1" parent="1" source="Is7DLDFzpAOOIFQMmCOW-11">
          <mxGeometry relative="1" as="geometry">
            <mxPoint x="705" y="280" as="targetPoint" />
          </mxGeometry>
        </mxCell>
        <mxCell id="Is7DLDFzpAOOIFQMmCOW-11" value="(b,5)" style="rounded=0;whiteSpace=wrap;html=1;fillColor=#1ba1e2;fontColor=#ffffff;strokeColor=#006EAF;" vertex="1" parent="1">
          <mxGeometry x="620" y="267.5" width="30" height="25" as="geometry" />
        </mxCell>
        <mxCell id="Is7DLDFzpAOOIFQMmCOW-14" value="(a,8)" style="rounded=0;whiteSpace=wrap;html=1;fillColor=#1ba1e2;fontColor=#ffffff;strokeColor=#006EAF;" vertex="1" parent="1">
          <mxGeometry x="710" y="187.5" width="30" height="25" as="geometry" />
        </mxCell>
        <mxCell id="Is7DLDFzpAOOIFQMmCOW-15" value="(b,8)" style="rounded=0;whiteSpace=wrap;html=1;fillColor=#1ba1e2;fontColor=#ffffff;strokeColor=#006EAF;" vertex="1" parent="1">
          <mxGeometry x="710" y="267.5" width="30" height="25" as="geometry" />
        </mxCell>
        <mxCell id="Is7DLDFzpAOOIFQMmCOW-16" value="&lt;b&gt;初始值&lt;/b&gt;" style="text;html=1;resizable=0;autosize=1;align=center;verticalAlign=middle;points=[];fillColor=none;strokeColor=none;rounded=0;" vertex="1" parent="1">
          <mxGeometry x="220" y="140" width="50" height="20" as="geometry" />
        </mxCell>
        <mxCell id="Is7DLDFzpAOOIFQMmCOW-17" value="&lt;b&gt;分区内计算&lt;/b&gt;" style="text;html=1;resizable=0;autosize=1;align=center;verticalAlign=middle;points=[];fillColor=none;strokeColor=none;rounded=0;" vertex="1" parent="1">
          <mxGeometry x="374" y="140" width="80" height="20" as="geometry" />
        </mxCell>
        <mxCell id="Is7DLDFzpAOOIFQMmCOW-18" value="&lt;b&gt;分区间计算&lt;/b&gt;" style="text;html=1;resizable=0;autosize=1;align=center;verticalAlign=middle;points=[];fillColor=none;strokeColor=none;rounded=0;" vertex="1" parent="1">
          <mxGeometry x="625" y="140" width="80" height="20" as="geometry" />
        </mxCell>
      </root>
    </mxGraphModel>
  </diagram>
</mxfile>
